<?xml version="1.0" encoding="utf-8"?>
<!-- Generator: Adobe Illustrator 16.0.0, SVG Export Plug-In . SVG Version: 6.00 Build 0)  -->
<!DOCTYPE svg PUBLIC "-//W3C//DTD SVG 1.1//EN" "http://www.w3.org/Graphics/SVG/1.1/DTD/svg11.dtd">
<svg version="1.1" id="Layer_1" xmlns="http://www.w3.org/2000/svg" xmlns:xlink="http://www.w3.org/1999/xlink" x="0px" y="0px"
	 width="100px" height="100px" viewBox="0 0 100 100" enable-background="new 0 0 100 100" xml:space="preserve">
<g>
	<path d="M71.633,2.28H28.367c-4.212,0-7.635,3.423-7.635,7.636v80.168c0,4.212,3.423,7.636,7.635,7.636h43.266
		c4.213,0,7.635-3.424,7.635-7.636V9.916C79.268,5.703,75.846,2.28,71.633,2.28z M42.365,9.254c0-1.039,0.844-1.884,1.885-1.884
		h10.229c1.04,0,1.884,0.845,1.884,1.884v0.051c0,1.039-0.844,1.883-1.884,1.883H44.25c-1.041,0-1.885-0.844-1.885-1.883V9.254z
		 M50,94.855c-2.277,0-4.135-1.857-4.135-4.136c0-2.277,1.857-4.136,4.135-4.136c2.278,0,4.136,1.858,4.136,4.136
		C54.136,92.998,52.278,94.855,50,94.855z M72.905,82.449c0,0.699-0.572,1.272-1.272,1.272H28.367c-0.699,0-1.272-0.573-1.272-1.272
		V17.551c0-0.699,0.573-1.272,1.272-1.272h43.266c0.7,0,1.272,0.573,1.272,1.272V82.449z"/>
	<path d="M66.555,74.813h-33.11c-0.695,0-1.26,0.564-1.26,1.261v0.024c0,0.696,0.564,1.261,1.26,1.261h33.11
		c0.697,0,1.261-0.564,1.261-1.261v-0.024C67.815,75.378,67.252,74.813,66.555,74.813z"/>
	<path d="M66.555,67.179h-33.11c-0.695,0-1.26,0.563-1.26,1.261v0.023c0,0.697,0.564,1.261,1.26,1.261h33.11
		c0.697,0,1.261-0.563,1.261-1.261v-0.023C67.815,67.742,67.252,67.179,66.555,67.179z"/>
	<path d="M66.555,59.543h-33.11c-0.695,0-1.26,0.564-1.26,1.261v0.024c0,0.696,0.564,1.261,1.26,1.261h33.11
		c0.697,0,1.261-0.564,1.261-1.261v-0.024C67.815,60.107,67.252,59.543,66.555,59.543z"/>
	<path d="M48.728,25.25c-6.012,0.597-10.791,5.376-11.388,11.389h11.388V25.25z"/>
	<path d="M50,50.637c7.029,0,12.726-5.697,12.726-12.726c0-6.599-5.022-12.022-11.452-12.661v11.389
		c0,1.401-1.142,2.545-2.546,2.545H37.34C37.977,45.613,43.401,50.637,50,50.637z"/>
</g>
</svg>
